HIERARCHY
ROOT Hips
{
	OFFSET -0.179506 -22.333345 2.821913
	CHANNELS 6 Xposition Yposition Zposition Zrotation Yrotation Xrotation 
	JOINT LeftUpLeg
	{
		OFFSET 6.951974 -9.140623 -0.681533
		CHANNELS 3 Zrotation Yrotation Xrotation
		JOINT LeftLeg
		{
			OFFSET 3.427654 -37.519855 -0.449580
			CHANNELS 3 Zrotation Yrotation Xrotation
			JOINT LeftFoot
			{
				OFFSET -1.359570 -39.796059 -4.369333
				CHANNELS 3 Zrotation Yrotation Xrotation
				JOINT LeftToe
				{
					OFFSET 2.635814 -5.579078 11.928840
					CHANNELS 3 Zrotation Yrotation Xrotation
					End Site
					{
						OFFSET 0.000000 0.000000 0.000000
					}
				}
			}
		}
	}
	JOINT RightUpLeg
	{
		OFFSET -6.767048 -9.052170 -0.431982
		CHANNELS 3 Zrotation Yrotation Xrotation
		JOINT RightLeg
		{
			OFFSET -3.829005 -38.256897 -0.885003
			CHANNELS 3 Zrotation Yrotation Xrotation
			JOINT RightFoot
			{
				OFFSET 1.577377 -39.841461 -4.231180
				CHANNELS 3 Zrotation Yrotation Xrotation
				JOINT RightToe
				{
					OFFSET -2.537174 -4.814398 12.334795
					CHANNELS 3 Zrotation Yrotation Xrotation
					End Site
					{
						OFFSET 0.000000 0.000000 0.000000
					}
				}
			}
		}
	}
	JOINT Spine
	{
		OFFSET -0.253288 10.896323 -2.669631
		CHANNELS 3 Zrotation Yrotation Xrotation
		JOINT Spine1
		{
			OFFSET 0.548704 13.518043 0.109247
			CHANNELS 3 Zrotation Yrotation Xrotation
			JOINT Spine2
			{
				OFFSET 0.145701 5.292222 2.542457
				CHANNELS 3 Zrotation Yrotation Xrotation
				JOINT Neck
				{
					OFFSET -0.277840 21.387037 -4.285703
					CHANNELS 3 Zrotation Yrotation Xrotation
					JOINT Head
					{
						OFFSET 0.515184 6.496960 5.134897
						CHANNELS 3 Zrotation Yrotation Xrotation
						End Site
						{
							OFFSET 0.000000 0.000000 0.000000
						}
					}
				}
				JOINT LeftShoulder
				{
					OFFSET 7.884473 12.174932 -3.408961
					CHANNELS 3 Zrotation Yrotation Xrotation
					JOINT LeftArm
					{
						OFFSET 9.097692 3.046888 -0.886815
						CHANNELS 3 Zrotation Yrotation Xrotation
						JOINT LeftForeArm
						{
							OFFSET 25.961220 -1.277207 -2.745643
							CHANNELS 3 Zrotation Yrotation Xrotation
							JOINT LeftHand
							{
								OFFSET 24.923361 0.898606 -0.117091
								CHANNELS 3 Zrotation Yrotation Xrotation
								End Site
								{
									OFFSET 0.000000 0.000000 0.000000
								}
							}
						}
					}
				}
				JOINT RightShoulder
				{
					OFFSET -8.175920 11.883285 -3.861528
					CHANNELS 3 Zrotation Yrotation Xrotation
					JOINT RightArm
					{
						OFFSET -9.601238 3.255117 -0.914307
						CHANNELS 3 Zrotation Yrotation Xrotation
						JOINT RightForeArm
						{
							OFFSET -25.374195 -1.332924 -2.140099
							CHANNELS 3 Zrotation Yrotation Xrotation
							JOINT RightHand
							{
								OFFSET -25.529810 0.777228 -0.555919
								CHANNELS 3 Zrotation Yrotation Xrotation
								End Site
								{
									OFFSET 0.000000 0.000000 0.000000
								}
							}
						}
					}
				}
			}
		}
	}
}
MOTION
Frames: 18
Frame Time: 0.033333
-52.676891 1.661372 86.928482 -168.954648 3.341451 84.275273 -2.128561 2.750126 21.110987 -4.508036 -17.666415 17.342485 3.142461 17.878359 -30.466466 nan nan nan -6.028361 3.836867 -23.793334 5.626601 5.595246 17.240050 6.408198 -3.584737 -17.895396 nan nan nan 1.095803 -7.660124 6.803261 4.754241 -6.549348 14.216070 0.220719 -2.963043 -4.967168 -4.278243 12.153230 2.836183 -0.338221 15.207847 2.459370 -29.089230 -3.081957 2.378002 -49.895692 -10.815671 16.701908 7.530912 -30.523256 -2.469423 -5.420115 -16.117212 2.246018 27.515663 1.923568 2.419200 52.141724 -4.430609 9.402160 -13.113593 27.392990 -10.488950 5.309951 13.702374 2.279269 
-52.818390 2.911182 86.731400 -168.465463 3.555859 84.124877 -2.041621 2.324449 21.339811 -4.822511 -17.615263 19.197370 2.989965 18.128354 -30.888737 nan nan nan -5.947197 4.120879 -23.969785 5.842046 4.888067 19.608618 6.189265 -3.507680 -17.429245 nan nan nan 1.190751 -7.960090 6.914904 5.027683 -6.618688 13.786169 0.299894 -3.029776 -4.504326 -4.413367 12.253593 2.797161 -0.562500 15.495547 2.367940 -28.789914 -3.108212 2.107532 -50.728728 -10.597391 16.967283 7.293047 -29.879034 -3.486545 -1.724826 -17.101361 -1.079773 27.879115 1.951755 2.183167 51.509664 -4.658153 9.547599 -12.893373 27.312536 -10.576877 4.012182 13.795691 1.530779 
-52.943615 4.164547 86.553192 -168.055843 3.804497 84.075760 -1.939736 1.877009 21.311596 -5.198082 -17.426905 21.300280 2.720127 18.326691 -31.189910 nan nan nan -5.806188 4.169192 -24.393457 6.158014 4.411699 22.140804 5.881723 -3.328861 -17.603551 nan nan nan 1.472394 -8.081810 6.685839 5.210522 -6.692151 14.001544 0.332292 -3.160220 -4.514589 -4.524589 12.408994 2.804973 -0.678514 15.720462 2.348650 -29.124791 -3.241215 2.110864 -50.437142 -10.597257 16.947763 7.336984 -29.837921 -3.590838 -1.752603 -17.386674 -1.123409 28.209473 2.010360 2.085896 51.069093 -4.899825 9.381886 -13.053308 27.362012 -11.049582 4.185722 13.704265 1.251214 
-53.073391 5.429055 86.416138 -167.672298 4.069253 84.063110 -1.842369 1.322021 21.060419 -5.675570 -16.865537 23.765425 2.625541 18.484843 -31.183631 nan nan nan -5.607017 4.152780 -24.731854 6.406385 4.048585 24.448310 5.629699 -3.387699 -17.667361 nan nan nan 1.768341 -8.131754 6.419105 5.374153 -6.788189 14.212005 0.389070 -3.254740 -4.538390 -4.593614 12.528574 2.834756 -0.762492 16.008423 2.422869 -29.350495 -3.410723 2.139397 -50.555765 -10.663011 16.817067 7.260376 -29.538785 -4.398427 -0.732166 -17.813858 -1.766796 28.282815 2.047336 2.033040 50.885638 -4.969207 9.176998 -12.961789 27.162983 -11.500547 3.769142 13.830581 1.168944 
-53.182842 6.694390 86.322784 -167.403486 4.450463 84.134534 -1.518959 0.979476 20.509338 -6.137814 -15.909682 26.611442 2.505966 18.414549 -31.004802 nan nan nan -5.237711 4.340915 -24.962354 6.618371 3.843795 26.388631 5.401185 -3.827482 -17.459784 nan nan nan 2.170982 -8.102684 5.829753 5.588396 -6.911092 15.166305 0.437528 -3.343631 -5.102638 -4.584734 12.829877 2.963923 -1.011192 16.213727 2.427065 -30.094703 -3.467939 2.355712 -49.817037 -10.669393 16.369181 8.185481 -30.615396 -3.383075 -5.117637 -15.742357 1.893205 28.416771 2.082787 2.379860 50.825627 -4.861175 8.894575 -13.551517 27.030374 -11.954968 4.904983 13.260818 1.673719 
-53.284058 7.938602 86.268112 -167.208281 4.860197 84.210522 -1.157332 0.620981 19.824051 -6.635242 -14.700678 29.571506 2.234743 18.340985 -30.528095 nan nan nan -4.883399 4.678232 -25.003419 6.857582 3.465186 27.856740 5.153785 -4.333757 -17.180097 nan nan nan 2.562131 -8.063749 5.289721 5.803355 -7.018428 15.996251 0.545247 -3.387679 -5.563838 -4.589467 13.197029 3.203460 -1.285588 16.219897 2.220119 -30.854586 -3.488020 2.665841 -49.054573 -10.782715 15.793820 8.868604 -31.633442 -2.317111 -9.560767 -13.865066 5.798653 28.528136 2.222429 2.816091 50.757398 -4.745363 8.494751 -14.143010 26.870788 -12.223073 6.187974 12.804320 2.182194 
-53.445118 9.194011 86.223885 -167.031705 5.209580 83.943426 -0.969330 -0.008884 19.448333 -7.196727 -13.258761 32.405290 2.094888 18.474190 -29.486271 nan nan nan -4.662711 5.032256 -24.447715 7.126674 2.724935 28.724049 4.770049 -4.644320 -17.046267 nan nan nan 2.771188 -8.109151 5.677480 6.012952 -6.974983 15.197279 0.782902 -3.317316 -4.893866 -4.695976 13.222986 3.427484 -1.573440 16.503469 1.869345 -30.209645 -3.685902 2.333857 -50.965552 -10.352372 16.451336 8.358243 -29.534299 -4.626644 -2.319073 -16.948741 -0.675293 28.400241 2.408433 2.450424 50.566776 -4.716852 8.858296 -13.499290 25.921239 -12.187243 3.313323 13.802063 0.930790 
-53.639324 10.455350 86.182587 -166.841954 5.537831 83.814243 -0.725422 -0.461725 18.743264 -7.672611 -11.698033 35.410573 1.907272 18.419838 -28.116969 nan nan nan -4.455901 5.123843 -23.852445 7.583581 2.257489 29.485515 3.956749 -4.840036 -17.257495 nan nan nan 3.172159 -8.085622 5.558468 6.069831 -7.116899 15.404818 0.839826 -3.193105 -4.930186 -4.608092 13.453165 3.706518 -1.792792 16.659320 1.589082 -30.504987 -3.781233 2.371143 -51.095198 -10.329445 16.392075 8.455958 -29.167484 -4.705445 -2.425165 -17.159370 -0.647814 28.332580 2.571798 2.502130 50.610919 -4.572296 8.578480 -13.448527 25.376752 -12.522712 3.301099 13.761928 1.185539 
-53.834656 11.689588 86.148735 -166.648218 5.658875 83.733970 -0.656664 -0.846999 17.755601 -7.929944 -9.909067 38.545235 1.830923 18.263407 -26.364934 nan nan nan -4.335890 5.035249 -23.277881 7.932792 2.040505 30.332833 2.985480 -4.775630 -17.733121 nan nan nan 3.388564 -7.915943 5.328544 6.051729 -7.275878 15.742958 0.903553 -3.148009 -4.958369 -4.525083 13.659181 3.876722 -1.984543 16.656732 1.294029 -30.667187 -3.870823 2.382713 -51.222643 -10.296072 16.331321 8.368762 -28.952460 -4.793636 -2.389677 -17.283208 -0.660726 28.370620 2.767034 2.554591 50.659551 -4.409065 8.560708 -13.543839 24.907482 -13.043893 3.049822 13.655911 1.186589 
-53.999645 12.829001 86.123154 -166.539897 5.587888 83.561559 -0.639399 -1.094255 16.602608 -8.118622 -7.912733 41.768865 1.983568 18.046671 -24.291301 nan nan nan -4.209259 4.940159 -22.695240 7.963418 1.952336 31.216806 1.959672 -4.778894 -18.251005 nan nan nan 3.336702 -7.617796 5.540864 6.007247 -7.256780 15.657216 1.035545 -3.185434 -4.811868 -4.163512 13.876050 3.917165 -2.330228 16.550464 1.162716 -30.541626 -3.977925 2.353672 -51.557788 -10.282929 16.310593 8.249593 -28.659782 -4.634864 -2.161161 -17.365224 -0.836527 28.336296 2.992512 2.495734 50.925922 -4.225821 8.713369 -13.780848 24.324090 -13.495875 2.730770 13.443010 1.149871 
-54.240414 13.930725 86.089912 -166.644785 5.443192 83.435957 -0.739923 -1.202449 15.338042 -8.297590 -5.862624 44.715719 2.031602 17.944237 -21.973463 nan nan nan -4.194125 4.879170 -22.211940 7.977846 1.937201 32.079101 1.086723 -4.736722 -18.641093 nan nan nan 3.394228 -7.172040 5.735342 5.891920 -7.140920 15.541003 1.107896 -3.190157 -4.709850 -3.731594 13.984107 4.008150 -2.668724 16.533302 1.101614 -30.410013 -4.107897 2.361110 -51.967632 -10.262281 16.327982 8.296756 -28.407053 -4.467415 -2.358508 -17.163329 -0.829792 28.080293 3.112856 2.453957 51.362125 -3.981473 8.823539 -13.977697 23.782521 -13.787354 2.547439 13.209852 1.058688 
-54.431881 15.055510 86.077469 -166.530167 5.433972 83.430946 -0.465150 -1.268442 13.858974 -8.323833 -3.941306 47.443916 1.816421 18.098264 -20.340885 nan nan nan -4.039148 4.823012 -21.655628 7.883612 1.786404 32.671308 0.423482 -4.850445 -19.070386 nan nan nan 3.435882 -6.796887 5.760370 5.870866 -7.193409 15.491253 1.175256 -3.114893 -4.679784 -3.571114 14.006866 4.149082 -2.633360 16.535530 1.034902 -30.324923 -4.180438 2.412096 -52.277155 -10.199874 16.470421 8.283145 -28.278999 -4.132655 -2.418625 -16.809317 -1.215711 27.960088 3.143111 2.509520 51.640340 -3.765990 8.962661 -14.049969 23.395676 -13.942299 2.237983 13.040672 0.551272 
-54.631519 16.155277 86.101692 -166.499494 5.424267 83.439087 -0.001514 -1.014767 12.358871 -7.866398 -1.926789 49.847027 1.615456 18.186048 -19.819551 nan nan nan -3.871875 4.858225 -21.043127 7.737096 1.683714 33.063767 0.077952 -4.898701 -19.610968 nan nan nan 3.539739 -6.479893 5.858933 5.828529 -7.160387 15.473176 1.164881 -2.941408 -4.790927 -3.552506 14.110844 4.255232 -2.489906 16.303338 0.897990 -30.291500 -4.205627 2.351746 -52.444113 -10.020629 16.857242 8.221950 -27.994234 -3.481193 -2.618169 -16.834069 -1.769811 28.003389 3.263450 2.569397 51.834988 -3.709409 9.259937 -14.259419 23.019199 -14.227875 2.031036 12.883965 -0.261732 
-54.873333 17.242249 86.156998 -166.687290 5.225165 83.309879 0.274668 -0.548633 11.205356 -7.332822 0.022556 51.666192 1.592538 18.074079 -20.076985 nan nan nan -3.888289 4.900329 -20.277951 7.592465 1.751201 33.360652 -0.040603 -4.660581 -20.092600 nan nan nan 3.485024 -5.980140 6.091574 5.750115 -6.929680 15.576795 1.177295 -2.832713 -4.932156 -3.340366 14.195262 4.515080 -2.642459 16.023731 0.499919 -30.295151 -4.288791 2.246164 -52.613361 -9.907243 17.270122 8.170091 -27.529308 -2.937588 -2.842958 -16.997547 -2.052554 28.140920 3.493773 2.599581 52.074100 -3.730795 9.644248 -14.771092 22.607359 -14.840403 1.821147 12.742974 -1.127055 
-55.112831 18.313770 86.238388 -166.799649 5.085393 83.165518 0.529098 -0.166488 10.053878 -7.028271 1.722080 53.183160 1.746176 18.540270 -20.543493 nan nan nan -3.858142 4.867067 -19.388732 7.546978 1.936694 33.484100 -0.217488 -4.530733 -20.442669 nan nan nan 3.435855 -5.494550 6.343979 5.725751 -6.760366 15.713984 1.175758 -2.714821 -5.056262 -3.020193 14.159162 4.668533 -2.856113 15.748292 0.254702 -30.296147 -4.285299 2.208157 -52.823457 -10.012798 17.503921 7.873011 -27.096453 -2.454706 -2.747295 -17.050119 -2.124383 28.238876 3.640093 2.610435 52.306044 -3.611127 9.810709 -15.124306 22.279744 -15.105970 1.518128 12.676893 -1.568704 
-55.349670 19.317486 86.322212 -166.570078 5.079684 83.300746 0.817068 0.016641 8.279192 -6.575485 3.250257 54.822537 1.956761 19.397119 -20.746139 nan nan nan -3.775023 4.598023 -18.673840 7.512040 2.067240 33.344004 -0.513164 -4.638012 -20.672260 nan nan nan 3.606803 -5.088272 6.493635 5.708373 -6.784280 15.427349 1.091098 -2.570295 -4.975603 -2.796658 13.904459 4.577430 -2.863498 15.506112 0.332960 -30.318093 -4.218835 2.204942 -52.996914 -10.175175 17.552286 7.406576 -26.716340 -1.901799 -2.683635 -17.019621 -2.196612 28.221331 3.587965 2.497324 52.497253 -3.446468 9.621017 -15.047456 22.172264 -14.956354 1.363195 12.502494 -1.351729 
-55.562592 20.302578 86.432587 -166.250332 5.110050 83.520626 1.276127 0.195382 6.331670 -6.064413 4.666788 56.281522 2.089554 19.748237 -20.686550 nan nan nan -3.626285 4.253565 -17.962829 7.367886 2.159285 33.035898 -0.766597 -4.706619 -20.763441 nan nan nan 3.764766 -4.653416 6.633918 5.715376 -6.802165 15.007098 1.053684 -2.422944 -4.866785 -2.576945 13.766950 4.575427 -2.790801 15.143080 0.366942 -30.388505 -4.207397 2.234570 -53.166861 -10.202647 17.518665 7.117331 -26.426052 -1.475493 -3.049716 -17.018812 -1.864829 28.109670 3.586590 2.333708 52.704048 -3.452461 9.377624 -14.817208 22.199139 -14.848656 1.461551 12.308906 -1.265322 
-55.792439 21.386372 86.630539 -166.134181 4.914432 83.302607 1.536797 0.590554 5.197985 -5.751048 5.812282 56.991104 2.222716 19.816134 -20.682796 nan nan nan -3.568541 3.918164 -16.561546 7.161643 2.526746 32.477793 -0.946814 -4.744051 -20.769123 nan nan nan 3.551204 -4.164676 6.979534 5.643536 -6.744663 15.118771 1.123407 -2.218713 -4.967014 -2.308324 13.757020 4.800624 -2.831968 14.820596 0.090160 -30.556144 -4.252612 2.320666 -53.098736 -10.020807 17.477448 6.863348 -26.429687 -1.229797 -3.239618 -16.979668 -1.446280 28.086315 3.743625 2.334244 52.896739 -3.419515 9.312372 -14.662931 22.201039 -14.965203 1.268249 12.213188 -1.544101 
